<svg id="Слой_1" data-name="Слой 1" xmlns="http://www.w3.org/2000/svg" viewBox="0 0 4422.55 1914.3"><defs><style>.cls-1,.cls-11,.cls-2,.cls-3,.cls-34,.cls-35,.cls-36,.cls-4{fill:none;}.cls-1,.cls-10,.cls-2,.cls-3,.cls-4,.cls-9{stroke:#212121;}.cls-1,.cls-11,.cls-2,.cls-3,.cls-34,.cls-35,.cls-4{stroke-linecap:round;}.cls-1,.cls-10,.cls-13,.cls-2,.cls-3,.cls-31,.cls-33,.cls-36,.cls-4,.cls-9{stroke-miterlimit:10;}.cls-1,.cls-2,.cls-3,.cls-4{stroke-width:15px;}.cls-1{stroke-dasharray:8 35;}.cls-3{stroke-dasharray:8.2 35.87;}.cls-4{stroke-dasharray:8.26 36.12;}.cls-5{font-size:90px;font-family:Lato-Regular, Lato;}.cls-5,.cls-8{fill:#212121;}.cls-6{letter-spacing:-0.01em;}.cls-7{letter-spacing:-0.01em;}.cls-9{fill:#b57f5a;}.cls-10,.cls-13,.cls-29,.cls-31{fill:#fff;}.cls-11,.cls-13,.cls-31,.cls-33,.cls-34,.cls-35,.cls-36{stroke:#fff;}.cls-11,.cls-34,.cls-35{stroke-linejoin:round;}.cls-11{stroke-width:6px;}.cls-12,.cls-30,.cls-33{fill:#b21645;}.cls-14{letter-spacing:-0.01em;}.cls-15{letter-spacing:-0.02em;}.cls-16{letter-spacing:-0.04em;}.cls-17{letter-spacing:-0.01em;}.cls-18{letter-spacing:-0.01em;}.cls-19{letter-spacing:0em;}.cls-20{letter-spacing:-0.02em;}.cls-21{letter-spacing:-0.01em;}.cls-22{letter-spacing:-0.01em;}.cls-23{letter-spacing:-0.01em;}.cls-24{letter-spacing:0em;}.cls-25{letter-spacing:-0.01em;}.cls-26{letter-spacing:0em;}.cls-27{letter-spacing:-0.01em;}.cls-28{letter-spacing:-0.01em;}.cls-30,.cls-32{opacity:0.8;}.cls-31,.cls-33{stroke-width:2px;}.cls-34,.cls-36{stroke-width:7px;}.cls-35{stroke-width:9px;}</style></defs><title>en</title><path class="cls-1" d="M1510.12,1469.46c.16,96.71.16,194-.13,290.27" transform="translate(-59.02 -316.77)"/><path class="cls-2" d="M4389.66,483.69c47.79-2.87,78.8,47.4,79.87,91.25,3.21,158.29,6.42,317.64,3.21,475.93V1238c2.14,192.51,0,386.09-1.07,578.61a116.41,116.41,0,0,1-78.07,93C4381.83,1912.9,4289,1911,4289,1911" transform="translate(-59.02 -316.77)"/><path class="cls-2" d="M2258.1,1915.3c101.87.41,203.43.41,305.32.6" transform="translate(-59.02 -316.77)"/><path class="cls-2" d="M1701.36,1915.16c101.87.42,203.43.42,305.32.61" transform="translate(-59.02 -316.77)"/><path class="cls-2" d="M1022,1915.16c101.87.42,203.43.42,305.32.61" transform="translate(-59.02 -316.77)"/><path class="cls-2" d="M342,1915.16c101.87.42,203.42.42,305.31.61" transform="translate(-59.02 -316.77)"/><path class="cls-2" d="M3223.55,482.84c87.69.41,175.1.41,262.81.61" transform="translate(-59.02 -316.77)"/><path class="cls-2" d="M417.19,477.53l4,0" transform="translate(-59.02 -316.77)"/><path class="cls-3" d="M457.07,477.41c66.13-.16,137.54-.17,202.43-.13" transform="translate(-59.02 -316.77)"/><path class="cls-2" d="M677.43,477.29h4" transform="translate(-59.02 -316.77)"/><path class="cls-2" d="M941.48,484.41h4" transform="translate(-59.02 -316.77)"/><path class="cls-4" d="M981.6,484.28c52.32-.14,108.18-.15,159.43-.12" transform="translate(-59.02 -316.77)"/><path class="cls-2" d="M1159.08,484.18h4" transform="translate(-59.02 -316.77)"/><text class="cls-5" transform="translate(1.05 443.53) rotate(0.41)"><tspan class="cls-6">H</tspan><tspan x="67.36" y="0">ar</tspan><tspan class="cls-7" x="144.85" y="0">v</tspan><tspan x="190.03" y="0">est</tspan></text><polygon class="cls-8" points="2876.22 144.86 2876.22 144.86 2876.22 144.86 2876.22 144.86"/><polygon class="cls-8" points="2014.33 149.85 2014.33 149.85 2014.33 149.85 2014.33 149.85"/><path class="cls-9" d="M852.15,347.84a6,6,0,0,1,6,6m-6-14.51h-62a14.53,14.53,0,0,0-14.34,12.22H747.13A20.46,20.46,0,0,0,726.69,372V590.32a20.46,20.46,0,0,0,20.44,20.44h148a20.46,20.46,0,0,0,20.44-20.44V372a20.46,20.46,0,0,0-20.44-20.44H866.48a14.53,14.53,0,0,0-14.33-12.22Z" transform="translate(-59.02 -316.77)"/><path class="cls-10" d="M895.13,360.07h-37v-6.21a6,6,0,0,0-6-6h-62a6,6,0,0,0-6,6v6.21h-37a12,12,0,0,0-12,11.94V590.32a12,12,0,0,0,12,11.95h148a12,12,0,0,0,12-11.95V372A12,12,0,0,0,895.13,360.07ZM789.4,353.86a.71.71,0,0,1,.72-.71h62a.71.71,0,0,1,.72.71v21.92a.72.72,0,0,1-.72.72h-62a.72.72,0,0,1-.72-.72ZM901.78,590.32a6.65,6.65,0,0,1-6.65,6.64h-148a6.65,6.65,0,0,1-6.64-6.64V372a6.65,6.65,0,0,1,6.64-6.64h37v10.41a6,6,0,0,0,6,6h62a6,6,0,0,0,6-6V365.37h37a6.65,6.65,0,0,1,6.65,6.64Z" transform="translate(-59.02 -316.77)"/><polyline class="cls-11" points="716.61 143.82 754.9 198.55 807.62 118.01"/><path class="cls-12" d="M3635.08,348.22a6,6,0,0,1,6,6m-6-14.52h-62A14.54,14.54,0,0,0,3558.72,352h-28.65a20.46,20.46,0,0,0-20.44,20.44V590.7a20.46,20.46,0,0,0,20.44,20.44h148a20.46,20.46,0,0,0,20.44-20.44V372.4A20.46,20.46,0,0,0,3678.07,352h-28.65a14.54,14.54,0,0,0-14.34-12.23Z" transform="translate(-59.02 -316.77)"/><path class="cls-13" d="M3678.07,360.45h-37v-6.2a6,6,0,0,0-6-6h-62a6,6,0,0,0-6,6v6.2h-37a12,12,0,0,0-12,11.95V590.7a12,12,0,0,0,12,11.95h148A12,12,0,0,0,3690,590.7V372.4A12,12,0,0,0,3678.07,360.45Zm-105.74-6.2a.72.72,0,0,1,.72-.72h62a.72.72,0,0,1,.72.72v21.91a.72.72,0,0,1-.72.72h-62a.72.72,0,0,1-.72-.72ZM3684.71,590.7a6.65,6.65,0,0,1-6.64,6.64h-148a6.65,6.65,0,0,1-6.64-6.64V372.4a6.65,6.65,0,0,1,6.64-6.64h37v10.4a6,6,0,0,0,6,6h62a6,6,0,0,0,6-6v-10.4h37a6.65,6.65,0,0,1,6.64,6.64Z" transform="translate(-59.02 -316.77)"/><polyline class="cls-11" points="3499.55 144.21 3537.84 198.93 3590.55 118.39"/><path class="cls-12" d="M4197.25,1777.24a6,6,0,0,1,6,6m-6-14.52h-62a14.56,14.56,0,0,0-14.34,12.23h-28.64a20.46,20.46,0,0,0-20.44,20.44v218.31a20.46,20.46,0,0,0,20.44,20.43h148a20.46,20.46,0,0,0,20.44-20.43V1801.41a20.46,20.46,0,0,0-20.44-20.44h-28.65a14.54,14.54,0,0,0-14.34-12.23Z" transform="translate(-59.02 -316.77)"/><path class="cls-13" d="M4240.24,1789.46h-37v-6.2a6,6,0,0,0-6-6h-62a6,6,0,0,0-6,6v6.2h-36.95a12,12,0,0,0-11.95,12v218.31a12,12,0,0,0,11.95,11.94h148a12,12,0,0,0,11.94-11.94V1801.41A12,12,0,0,0,4240.24,1789.46Zm-105.74-6.2a.72.72,0,0,1,.72-.72h62a.72.72,0,0,1,.72.72v21.91a.72.72,0,0,1-.72.72h-62a.72.72,0,0,1-.72-.72Zm112.38,236.46a6.65,6.65,0,0,1-6.64,6.64h-148a6.65,6.65,0,0,1-6.65-6.64V1801.41a6.65,6.65,0,0,1,6.65-6.64h36.95v10.4a6,6,0,0,0,6,6h62a6,6,0,0,0,6-6v-10.4h37a6.65,6.65,0,0,1,6.64,6.64Z" transform="translate(-59.02 -316.77)"/><polyline class="cls-11" points="4061.71 1573.22 4100.01 1627.94 4152.72 1547.41"/><path class="cls-12" d="M2164.41,1777.6a6,6,0,0,1,6,6m-6-14.52h-62a14.53,14.53,0,0,0-14.34,12.23h-28.65a20.46,20.46,0,0,0-20.44,20.44v218.3a20.46,20.46,0,0,0,20.44,20.44h148a20.46,20.46,0,0,0,20.44-20.44v-218.3a20.46,20.46,0,0,0-20.44-20.44h-28.65a14.53,14.53,0,0,0-14.33-12.23Z" transform="translate(-59.02 -316.77)"/><path class="cls-13" d="M2207.39,1789.83h-37v-6.2a6,6,0,0,0-6-6h-62a6,6,0,0,0-6,6v6.2h-37a12,12,0,0,0-11.95,12v218.3a12,12,0,0,0,11.95,12h148a12,12,0,0,0,12-12v-218.3A12,12,0,0,0,2207.39,1789.83Zm-105.73-6.2a.72.72,0,0,1,.72-.72h62a.72.72,0,0,1,.72.72v21.91a.73.73,0,0,1-.72.72h-62a.72.72,0,0,1-.72-.72ZM2214,2020.08a6.65,6.65,0,0,1-6.64,6.64h-148a6.65,6.65,0,0,1-6.64-6.64v-218.3a6.65,6.65,0,0,1,6.64-6.65h37v10.41a6,6,0,0,0,6,6h62a6,6,0,0,0,6-6v-10.41h37a6.65,6.65,0,0,1,6.64,6.65Z" transform="translate(-59.02 -316.77)"/><polyline class="cls-11" points="2028.87 1573.59 2067.16 1628.31 2119.88 1547.77"/><path class="cls-12" d="M1541.24,1165.12a6,6,0,0,1,6,6m-6-14.52h-62a14.54,14.54,0,0,0-14.34,12.23h-28.65a20.46,20.46,0,0,0-20.44,20.44v218.3a20.46,20.46,0,0,0,20.44,20.44h148a20.46,20.46,0,0,0,20.44-20.44V1189.3a20.46,20.46,0,0,0-20.44-20.44h-28.65a14.54,14.54,0,0,0-14.34-12.23Z" transform="translate(-59.02 -316.77)"/><path class="cls-13" d="M1584.23,1177.35h-37v-6.2a6,6,0,0,0-6-6h-62a6,6,0,0,0-6,6v6.2h-37a12,12,0,0,0-12,12v218.3a12,12,0,0,0,12,12h148a12,12,0,0,0,12-12V1189.3A12,12,0,0,0,1584.23,1177.35Zm-105.73-6.2a.72.72,0,0,1,.72-.72h62a.72.72,0,0,1,.72.72v21.91a.72.72,0,0,1-.72.72h-62a.72.72,0,0,1-.72-.72Zm112.37,236.45a6.65,6.65,0,0,1-6.64,6.64h-148a6.65,6.65,0,0,1-6.64-6.64V1189.3a6.65,6.65,0,0,1,6.64-6.65h37v10.41a6,6,0,0,0,6,6h62a6,6,0,0,0,6-6v-10.41h37a6.65,6.65,0,0,1,6.64,6.65Z" transform="translate(-59.02 -316.77)"/><polyline class="cls-11" points="1405.71 961.11 1444 1015.83 1496.71 935.29"/><path class="cls-12" d="M244.31,1777.6a6,6,0,0,1,6,6m-6-14.52h-62A14.53,14.53,0,0,0,168,1781.34H139.3a20.46,20.46,0,0,0-20.44,20.44v218.3a20.46,20.46,0,0,0,20.44,20.44h148a20.46,20.46,0,0,0,20.44-20.44v-218.3a20.46,20.46,0,0,0-20.44-20.44H258.65a14.53,14.53,0,0,0-14.34-12.23Z" transform="translate(-59.02 -316.77)"/><path class="cls-13" d="M287.3,1789.83h-37v-6.2a6,6,0,0,0-6-6h-62a6,6,0,0,0-6,6v6.2h-37a12,12,0,0,0-12,12v218.3a12,12,0,0,0,12,12h148a12,12,0,0,0,11.95-12v-218.3A12,12,0,0,0,287.3,1789.83Zm-105.74-6.2a.72.72,0,0,1,.72-.72h62a.72.72,0,0,1,.72.72v21.91a.72.72,0,0,1-.72.72h-62a.73.73,0,0,1-.72-.72Zm112.38,236.45a6.65,6.65,0,0,1-6.64,6.64h-148a6.65,6.65,0,0,1-6.64-6.64v-218.3a6.65,6.65,0,0,1,6.64-6.65h37v10.41a6,6,0,0,0,6,6h62a6,6,0,0,0,6-6v-10.41h37a6.65,6.65,0,0,1,6.64,6.65Z" transform="translate(-59.02 -316.77)"/><polyline class="cls-11" points="108.78 1573.59 147.07 1628.31 199.78 1547.77"/><text class="cls-5" transform="translate(1181.75 446.4) rotate(0.41)"><tspan class="cls-14">P</tspan><tspan class="cls-15" x="53.19" y="0">r</tspan><tspan x="84.11" y="0">ess</tspan></text><text class="cls-5" transform="translate(1592.52 445.33) rotate(0.41)"><tspan class="cls-16">F</tspan><tspan x="46.98" y="0">erme</tspan><tspan class="cls-17" x="248.8" y="0">n</tspan><tspan x="298.4" y="0">t</tspan><tspan class="cls-18" x="330.66" y="0">a</tspan><tspan class="cls-19" x="374.81" y="0">tion</tspan></text><text class="cls-5" transform="translate(2546.49 444.56) rotate(0.41)"><tspan class="cls-20">M</tspan><tspan x="82.21" y="0">alolactic </tspan><tspan class="cls-21" x="428.03" y="0">C</tspan><tspan x="487.25" y="0">o</tspan><tspan class="cls-22" x="538.28" y="0">n</tspan><tspan class="cls-23" x="587.56" y="0">v</tspan><tspan x="632.74" y="0">e</tspan><tspan class="cls-24" x="680.26" y="0">r</tspan><tspan x="712.75" y="0">sion</tspan></text><text class="cls-5" transform="translate(4031.63 446.26) rotate(0.41)">Aging <tspan class="cls-14" x="-26.69" y="108">P</tspan><tspan class="cls-15" x="26.5" y="108">r</tspan><tspan x="57.42" y="108">o</tspan><tspan class="cls-25" x="108.45" y="108">c</tspan><tspan x="150.61" y="108">ess</tspan></text><text class="cls-5" transform="translate(2512.64 1886.85) rotate(0.41)"><tspan class="cls-26">F</tspan><tspan x="50.71" y="0">ilt</tspan><tspan class="cls-27" x="125.82" y="0">r</tspan><tspan class="cls-18" x="157.86" y="0">a</tspan><tspan x="202" y="0">tion</tspan></text><text class="cls-5" transform="translate(1336.98 1887.29) rotate(0.41)"><tspan class="cls-26">F</tspan><tspan x="50.71" y="0">illing</tspan></text><text class="cls-5" transform="translate(636.7 1888.12) rotate(0.41)"><tspan class="cls-28">B</tspan><tspan class="cls-25" x="57.51" y="0">o</tspan><tspan x="107.73" y="0">ttles</tspan></text><ellipse class="cls-12" cx="155.68" cy="160.62" rx="155.68" ry="159.37"/><path class="cls-29" d="M162.53,507.16a28.14,28.14,0,0,0,25.66,35.93,27.16,27.16,0,0,0-.24,3.49,28.16,28.16,0,1,0,56.32,0,29.09,29.09,0,0,0-.24-3.49,28.14,28.14,0,0,0,25.66-35.93,28.13,28.13,0,0,0,.2-56.24,28,28,0,0,0,.91-6.95,27.63,27.63,0,0,0-.55-5.49,46.83,46.83,0,0,0,7.89-6.35c2.9-2.89,5.72-6.3,4.72-9.62s-4.85-4.33-9.88-5.37c5.17-11.82,6.18-29.85,6.22-30.68a2.42,2.42,0,0,0-.71-1.85,2.52,2.52,0,0,0-1.85-.71c-.82.05-18.85,1.05-30.67,6.23-1.05-5-2.1-8.9-5.37-9.88s-6.73,1.82-9.63,4.72l-.53.53c-.5.49-.89.89-1.26,1.28a14.57,14.57,0,0,0-26.85,7.84c0,.11,0,.22,0,.32L205.8,421a28.09,28.09,0,0,0-43.48,29.93,28.13,28.13,0,0,0,.21,56.24Zm3.76,7.84a23.13,23.13,0,0,1,1.49-8.21,28.21,28.21,0,0,0,21.8-17.91,28.21,28.21,0,0,0,21.8,17.91A23.29,23.29,0,1,1,166.29,515Zm49.82-61.68A28.19,28.19,0,0,0,238,471.72a23.29,23.29,0,1,1-45.4,7.31,23.08,23.08,0,0,1,1.17-7.25A28.21,28.21,0,0,0,216.11,453.32Zm26.53-32.64A23.29,23.29,0,1,1,219.34,444,23.32,23.32,0,0,1,242.64,420.68Zm-26.53,149.2a23.33,23.33,0,0,1-23.3-23.3,23.72,23.72,0,0,1,.32-3.67,28.22,28.22,0,0,0,23-18.56,28.2,28.2,0,0,0,23,18.56,23.71,23.71,0,0,1,.31,3.67A23.32,23.32,0,0,1,216.11,569.88Zm26.53-31.59a23.24,23.24,0,0,1-21.76-31.56,28.2,28.2,0,0,0,21.58-18.34,28.19,28.19,0,0,0,22,18.4,23.28,23.28,0,0,1-21.79,31.5ZM269,455.74A23.3,23.3,0,1,1,245.69,479a23.08,23.08,0,0,1,1.18-7.25,28.22,28.22,0,0,0,21.39-16.19A2.21,2.21,0,0,0,269,455.74ZM233.87,389l.55-.54c3.53-3.53,4.75-3.5,4.74-3.52.89.55,1.76,4.83,2.33,7.66l.34,1.65a2.44,2.44,0,0,0,3.58,1.63c8.19-4.6,22.68-6.32,28.72-6.85-.53,6-2.25,20.53-6.85,28.72a2.43,2.43,0,0,0,1.63,3.57l1.64.34c2.84.58,7.12,1.45,7.64,2.28,0,0,.09,1.22-3.49,4.8a42.59,42.59,0,0,1-5.92,4.86,28.1,28.1,0,0,0-41.42-13.21l4.1-25.33a2.56,2.56,0,0,0,0-.39,14.74,14.74,0,0,0-.26-2.67A20.42,20.42,0,0,1,233.87,389Zm-17-4a9.73,9.73,0,0,1,9.71,9.53l-5,30.83a28.06,28.06,0,0,0-5.53,9.34,28.2,28.2,0,0,0-4.71-8.42l-4.2-31.72A9.73,9.73,0,0,1,216.91,384.91Zm-27.33,35.77A23.29,23.29,0,1,1,166.29,444,23.32,23.32,0,0,1,189.58,420.68Zm-26.35,35.06.81,0a28.24,28.24,0,0,0,21.31,16,23.08,23.08,0,0,1,1.17,7.25,23.29,23.29,0,1,1-23.29-23.29Z" transform="translate(-59.02 -316.77)"/><ellipse class="cls-30" cx="1285.22" cy="160.05" rx="155.68" ry="159.37"/><path class="cls-31" d="M1417.8,569H1403l2.12-1.83c2.76-2.37,4.2-5.93,4.27-10.58a1.54,1.54,0,0,0-1.54-1.57h-14V459.05h4.82a1.56,1.56,0,0,0,1.55-1.55v-5.67a11,11,0,0,0-10.94-10.93h-43.1l0-1.19V389.76h25.52v1.16a4.07,4.07,0,0,0,4.06,4.07h18.78a4.08,4.08,0,0,0,4.07-4.07v-7a4.08,4.08,0,0,0-4.07-4.07h-18.78a4.08,4.08,0,0,0-4.06,4v1H1315.4v-1a4.08,4.08,0,0,0-4.07-4h-18.77a4.07,4.07,0,0,0-4.07,4.07v7a4.07,4.07,0,0,0,4.07,4.07h18.77a4.07,4.07,0,0,0,4.07-4.07v-1.16h26V439.7c0,.05,0,.09,0,.13l0,1.07h-43.26a11,11,0,0,0-10.94,10.93v5.67a1.56,1.56,0,0,0,1.55,1.55h5.44V555h-14.6a1.53,1.53,0,0,0-1.52,1.29,11.51,11.51,0,0,0,2,8.32A9.28,9.28,0,0,0,1283,567l3.54,2h-15.89a2.41,2.41,0,0,0,0,4.82H1417.8a2.41,2.41,0,1,0,0-4.82Zm-43.79-185a1.84,1.84,0,0,1,1.83-1.84h18.78a1.84,1.84,0,0,1,1.83,1.84v7a1.83,1.83,0,0,1-1.83,1.83h-18.78a1.83,1.83,0,0,1-1.83-1.83Zm-60.84,7a1.84,1.84,0,0,1-1.84,1.83h-18.77a1.84,1.84,0,0,1-1.84-1.83v-7a1.85,1.85,0,0,1,1.84-1.84h18.77a1.85,1.85,0,0,1,1.84,1.84Zm-22.79,65v-4.12a7.85,7.85,0,0,1,7.84-7.84h91.1a7.85,7.85,0,0,1,7.84,7.84V456Zm100.42,3.1V555h-18.94V459.05Zm-22,0V555h-23V459.05Zm-26.07,0V555h-24.22V459.05Zm-27.32,0V555h-18V459.05Zm85.47,107.09h-16c-29.16,0-88.93-.09-96.44-.78-2.6-.24-4.53-1.13-5.72-2.65a7.22,7.22,0,0,1-1.4-3.47l-.16-1.19h125.21l-.24,1.24c-1,5-4.09,6.44-5,6.78Z" transform="translate(-59.02 -316.77)"/><g class="cls-32"><ellipse class="cls-33" cx="1856.47" cy="160.37" rx="155.68" ry="159.37"/><path class="cls-31" d="M1980.45,405.36c-4.61-4.2-10.47-6-16.08-7.48-3.77-1-7.71-1.7-11.52-2.38-1.41-.25-2.66-.77-2.71-2.95-.15-6.08-1.55-7.9-7.52-9.78a68.31,68.31,0,0,0-18.11-2.66c-3.78-.15-7.74-.3-11.8-.3a88.48,88.48,0,0,0-23.47,2.68,25.74,25.74,0,0,0-7.39,3.82c-1.27.86-1.72,2.47-1.38,4.92.48,3.47-1.76,4.27-3.76,4.57-5.76.86-13.25,2.29-20.14,5.66a31.69,31.69,0,0,0-5.91,3.84,9.11,9.11,0,0,0-3.5,7.42v21.6c0,16.08,0,32.7.06,49a17.16,17.16,0,0,0,.78,4.25c.19.74.39,1.5.55,2.26s.28,1.24.44,1.86a19.75,19.75,0,0,1,.77,4.61c.08,22.29.14,46.23,0,70.24a8.21,8.21,0,0,0,3.28,6.54,7.11,7.11,0,0,0,6.55,1c3.1-1,5-3.78,5-7.41q0-17.26,0-34.52v-18.6l1.83,2.08c13.67,15.54,28.84,30.65,49.13,48.91,20.29-18.25,35.46-33.35,49.12-48.88l1.83-2.08V532.4q0,17.05,0,34.11c0,4.65,2.89,7.85,7.18,8a7.3,7.3,0,0,0,5.31-2,7.56,7.56,0,0,0,2.23-5.49q0-20,0-40.09V513.49c0-1.75,0-3.5,0-5.25,0-4.47,0-9.09.07-13.64a11.43,11.43,0,0,1,.76-3.35,17.3,17.3,0,0,0,.51-1.66c.13-.57.29-1.15.44-1.72a17,17,0,0,0,.8-4.34c.06-15.9.06-32.06.06-47.69V412.47A9.25,9.25,0,0,0,1980.45,405.36Zm1.3,69.93,0,5.44a24.82,24.82,0,0,1-3.41,12.66c-4.34,7.72-9.93,14.56-14.82,20.23-12.78,14.83-26.75,28.33-38.73,39.57-1.92,1.8-3.9,3.6-5.82,5.35l-2.7,2.46-.67.61-.7-.57-.57-.45a10.51,10.51,0,0,1-1.08-.9q-5.6-5.49-11.22-11c-9-8.83-18.4-18-27.39-27.14-9.69-9.91-16.69-18.87-22-28.2a24.29,24.29,0,0,1-3.37-12.47c.11-20.17.11-41.55,0-67.27a9.2,9.2,0,0,1,4.27-8,37,37,0,0,1,13.22-5.54c3.78-.89,7.51-1.63,11.47-2.41l4.32-.86v-5.23c0-3.25.61-4.9,4.26-6.1a51,51,0,0,1,8.68-2.15A142.58,142.58,0,0,1,1933,383a70,70,0,0,1,11.06,2.59l.07,0a5,5,0,0,1,4,5.84,14.67,14.67,0,0,0,0,2.31,18.82,18.82,0,0,1,0,2.25c-.07.87-.08,1,1.18,1.15,7.4,1,16.07,2.45,24.34,6.12,5.89,2.62,8.47,6.66,8.36,13.11C1981.54,436,1981.65,456,1981.75,475.29Z" transform="translate(-59.02 -316.77)"/><path class="cls-31" d="M1934.7,452.73a7,7,0,0,0-5,2.09,6.85,6.85,0,0,0-1.92,4.93,7,7,0,0,0,2.1,4.94,6.86,6.86,0,0,0,4.82,2h.13a7.07,7.07,0,0,0,6.87-6.93,6.92,6.92,0,0,0-2.1-5A6.85,6.85,0,0,0,1934.7,452.73Zm0,11.63h-.08a4.55,4.55,0,0,1-3.22-1.31,4.79,4.79,0,0,1-1.42-3.34,4.53,4.53,0,0,1,1.28-3.28h0a4.7,4.7,0,0,1,3.36-1.4,4.62,4.62,0,0,1,3.28,1.36,4.75,4.75,0,0,1,1.42,3.34A4.82,4.82,0,0,1,1934.74,464.36Z" transform="translate(-59.02 -316.77)"/><path class="cls-31" d="M1958.53,477.46a9.56,9.56,0,0,0-9.46-9.5h-.1a9.52,9.52,0,0,0-9.48,9.57,9.34,9.34,0,0,0,2.73,6.66,9.56,9.56,0,0,0,6.83,2.81h0A9.53,9.53,0,0,0,1958.53,477.46Zm-14.68,5.1a7,7,0,0,1-2.06-5,7.14,7.14,0,0,1,7.2-7.28h.07a7.26,7.26,0,0,1,7.17,7.21,7.24,7.24,0,0,1-12.38,5.1Z" transform="translate(-59.02 -316.77)"/><polygon class="cls-31" points="1889.98 154.18 1889.98 154.18 1889.98 154.18 1889.98 154.18"/><path class="cls-31" d="M1922.65,541.05c4.4-4.15,8.94-8.43,13.32-12.74,9.79-9.63,21-21,30.4-33.7,1.44-2,2.9-4.16,4.45-6.71a24,24,0,0,0,3.67-13.33c-.15-6.53-.12-13.15-.09-19.55q0-4,0-8.1v-.41a2.83,2.83,0,0,0-.92-2.09,2.87,2.87,0,0,0-2.16-.76l-1.21.1c-2.17.16-4.19.32-6.25.39-1.53.05-3.08.13-4.58.21-6.63.34-12.87.67-19.06-1-5.18-1.41-10.37-3.12-15.39-4.78l-.53-.18-5.56-1.82c-8.33-2.67-17.26-5.29-26.7-5.29-1.38,0-2.75.06-4.09.17a52.11,52.11,0,0,0-30,12.76h0a4.61,4.61,0,0,0-1.42,3.18c-.06,9.75-.07,19.84,0,30,0,4.31,2.06,8,4,11.1,5.31,8.67,12,16.93,21.79,26.81,7.26,7.34,14.79,14.62,22.08,21.67q4.58,4.42,9.14,8.86l.19.18a2.76,2.76,0,0,0,1.87.72,2.88,2.88,0,0,0,2-.8l4.86-4.59Zm-1.92-1.34-4.21,4-1,.93-1-.94-8.65-8.38c-7.32-7.08-14.84-14.35-22-21.64-9.64-9.74-16.26-17.88-21.47-26.39-1.82-3-3.6-6.19-3.62-9.91,0-10.18,0-20.26,0-30a2.59,2.59,0,0,1,.43-1.25l.23-.24a49.83,49.83,0,0,1,28.67-12.18c10.42-.88,20.48,2,29.88,5h0q2.85.92,5.68,1.86l.36.12c5.1,1.68,10.32,3.41,15.55,4.83,6.56,1.79,13.28,1.43,19.78,1.1,1.49-.08,3-.16,4.54-.21,2.11-.07,4.15-.23,6.31-.4l1.85-.14v1.5q0,3.58,0,7.15V455c0,6.43,0,13.09.09,19.61a21.7,21.7,0,0,1-3.33,12.08c-1.52,2.5-2.94,4.64-4.35,6.54-9.28,12.61-20.43,23.87-30.15,33.43-4.39,4.32-8.95,8.62-13.35,12.77Z" transform="translate(-59.02 -316.77)"/></g><path class="cls-9" d="M2494.92,348.84a6,6,0,0,1,6,6m-6-14.51h-62a14.53,14.53,0,0,0-14.34,12.22H2389.9A20.46,20.46,0,0,0,2369.46,373V591.32a20.46,20.46,0,0,0,20.44,20.44h148a20.46,20.46,0,0,0,20.44-20.44V373a20.46,20.46,0,0,0-20.44-20.44h-28.65a14.53,14.53,0,0,0-14.33-12.22Z" transform="translate(-59.02 -316.77)"/><path class="cls-10" d="M2537.9,361.06h-37v-6.2a6,6,0,0,0-6-6h-62a6,6,0,0,0-6,6v6.2h-37A12,12,0,0,0,2378,373V591.32a12,12,0,0,0,12,11.94h148a12,12,0,0,0,11.95-11.94V373A12,12,0,0,0,2537.9,361.06Zm-105.73-6.2a.72.72,0,0,1,.72-.72h62a.73.73,0,0,1,.72.72v21.91a.72.72,0,0,1-.72.72h-62a.72.72,0,0,1-.72-.72Zm112.37,236.46a6.65,6.65,0,0,1-6.64,6.64h-148a6.65,6.65,0,0,1-6.64-6.64V373a6.65,6.65,0,0,1,6.64-6.64h37v10.4a6,6,0,0,0,6,6h62a6,6,0,0,0,6-6v-10.4h37a6.65,6.65,0,0,1,6.64,6.64Z" transform="translate(-59.02 -316.77)"/><polyline class="cls-11" points="2359.38 144.82 2397.67 199.54 2450.39 119.01"/><g class="cls-32"><ellipse class="cls-12" cx="2984.19" cy="160.26" rx="155.68" ry="159.37"/><path class="cls-29" d="M3127.33,435c6.19,28.08,5.64,55.88-.94,83.8,1.59,0,2.94,0,4.29,0,2.08.07,3,1.11,2.73,3.16q-1.1,9-2.23,18c-.3,2.38-1,3-3.43,3-1.91,0-3.82.07-5.72,0a1.67,1.67,0,0,0-2,1.4,206.84,206.84,0,0,1-10.64,26.38,4.29,4.29,0,0,1-4.5,2.79q-60.45-.12-120.9,0a3.15,3.15,0,0,1-3.2-1.91A192.9,192.9,0,0,1,2969,544.5a1.85,1.85,0,0,0-2.2-1.53c-1.69.11-3.38,0-5.07,0-1.95,0-2.74-.62-3-2.49q-1.24-9.42-2.37-18.83a2.4,2.4,0,0,1,2.47-2.82c1.12-.08,2.26,0,3.64,0-6.17-28.06-5.62-55.85,1-83.8-1.56,0-2.84,0-4.13,0-2.32-.05-3.16-1-2.88-3.28q1.1-8.77,2.16-17.54c.34-2.75.92-3.27,3.64-3.28,1.8,0,3.61-.08,5.4,0,1.25.07,1.79-.38,2.18-1.58a204.18,204.18,0,0,1,10.57-26.21,4.5,4.5,0,0,1,4.65-2.92q59.64.11,119.27,0c2.64,0,4.11.77,5.32,3.18a209.72,209.72,0,0,1,11.21,26c.4,1.17.93,1.65,2.2,1.57,1.73-.11,3.48-.05,5.23,0s2.61.65,2.85,2.47q1.23,9.42,2.36,18.84A2.32,2.32,0,0,1,3131,435C3129.86,435.08,3128.73,435,3127.33,435Zm-84.84,83.79c0-3.26,0-6.3,0-9.34,0-1.15-.38-1.59-1.46-1.89a15.91,15.91,0,0,1,0-30.7,1.65,1.65,0,0,0,1.42-1.93q0-19.15,0-38.3c0-1.27-.32-1.66-1.65-1.65-11.56.06-23.11,0-34.67,0-.58,0-1.16,0-1.92.09-.63,6.54-1.35,12.93-1.85,19.34a329.67,329.67,0,0,0,1.22,62.74c.16,1.39.66,1.64,1.92,1.64,11.72-.05,23.44,0,35.17,0Zm43.34-.09c.78-11.43,1.73-22.67,2.26-33.94a307.44,307.44,0,0,0-1.91-47.86c-.15-1.4-.48-1.93-2-1.93q-17.58.11-35.16,0c-1.37,0-1.73.39-1.72,1.74,0,12.55.06,25.1,0,37.65,0,1.59.49,2.11,2,2.44,8.34,1.8,13.87,11.06,11.55,19.29a15.81,15.81,0,0,1-12.16,11.75c-.49.12-1.26.57-1.27.89-.09,3.3-.06,6.61-.06,10Zm4.46,0a8.77,8.77,0,0,0,.88.11c9.71,0,19.42,0,29.12,0,1,0,1.32-.44,1.49-1.3.47-2.46,1-4.91,1.5-7.37a180.52,180.52,0,0,0-.52-73.64c-.25-1.2-.76-1.53-2-1.53-9.54.05-19.09,0-28.63,0a13.33,13.33,0,0,0-1.36.13A337.32,337.32,0,0,1,3090.29,518.7Zm-90.78-83.48a5.58,5.58,0,0,0-.82-.16c-9.76,0-19.53,0-29.29,0-1,0-1.18.5-1.34,1.25a202.88,202.88,0,0,0-4.93,35.12,183.1,183.1,0,0,0,3.88,45.87c.25,1.16.64,1.6,1.89,1.59,9.49-.05,19,0,28.48,0,.47,0,.95-.05,1.61-.1A337.13,337.13,0,0,1,2999.51,435.22Zm127,102.83c.59-4.83,1.17-9.5,1.76-14.24H2961.5l1.77,14.24Zm1.78-107.87c-.53-4.19-1.05-8.18-1.53-12.18-.27-2.21.24-2.22-2.53-2.22q-79,0-158.06,0c-.6,0-1.2.05-1.79,0-.92-.07-1.22.35-1.31,1.23-.28,2.66-.64,5.31-1,8-.21,1.71-.4,3.41-.61,5.21Zm-80.89-45.05V410.8h35a1.91,1.91,0,0,0,.07-.46c-1.88-8-3.78-16-5.63-24-.24-1.06-.83-1.19-1.75-1.19-6.6,0-13.2,0-19.8,0Zm-40.06,158a3.43,3.43,0,0,0,0,.72c1.86,7.91,3.75,15.81,5.58,23.73.25,1.12.85,1.3,1.85,1.29,8.67,0,17.34,0,26,0,.52,0,1-.06,1.55-.1V543.09Zm35-157.86c-.43,0-.75-.1-1.07-.1-8.88,0-17.77,0-26.65,0-1.14,0-1.52.47-1.74,1.43-1.54,7-3.11,14.05-4.65,21.08-.23,1-.38,2.09-.58,3.22h34.69Zm39.85,157.87h-34.77v25.59a5.18,5.18,0,0,0,.62.11c9.1,0,18.21,0,27.32,0,.92,0,1.22-.4,1.41-1.19.67-2.81,1.43-5.6,2.05-8.42C3080,553.91,3081.09,548.57,3082.23,543.1Zm5.48-132.28h28.35a3.75,3.75,0,0,0-.16-.76c-3.5-8-7-16.08-10.56-24.09a2.36,2.36,0,0,0-1.83-.81c-6.82-.06-13.63,0-20.44,0-.46,0-.92.07-1.32.1C3083.75,393.82,3085.73,402.29,3087.71,410.82Zm-85.61,132.3h-28.34a3.37,3.37,0,0,0,.15.76c3.48,8,6.94,16,10.5,23.94a2.27,2.27,0,0,0,1.77.95c6.88.07,13.75.05,20.62,0,.42,0,.83-.07,1.25-.11C3006.06,560.12,3004.08,551.65,3002.1,543.12Zm-27.74-132.33a7.91,7.91,0,0,0,1,.15c8.72,0,17.44,0,26.16,0,1.16,0,1.29-.62,1.48-1.48,1.62-7.68,3.28-15.35,4.93-23,.08-.4.11-.8.16-1.22a3.39,3.39,0,0,0-.6-.11c-7.2,0-14.39,0-21.58,0a2.23,2.23,0,0,0-1.61,1.17c-2.37,5.33-4.69,10.68-6.91,16.07C2976.29,405.12,2975.4,407.91,2974.36,410.79Zm141,132.35a7.49,7.49,0,0,0-1-.13c-8.73,0-17.45,0-26.18,0-1.17,0-1.28.62-1.45,1.48-1,5.19-2.07,10.37-3.16,15.54-.62,2.9-1.34,5.78-2,8.68a4.2,4.2,0,0,0,.65.13c7.2,0,14.4,0,21.59,0a2.23,2.23,0,0,0,1.62-1.18q3.84-8.75,7.5-17.59C3113.89,547.79,3114.57,545.5,3115.4,543.14Zm-59-51.13a11.13,11.13,0,1,0-10.72,11.36A11.15,11.15,0,0,0,3056.45,492Z" transform="translate(-59.02 -316.77)"/></g><g class="cls-32"><ellipse class="cls-12" cx="4156.59" cy="160.28" rx="155.68" ry="159.37"/><path class="cls-29" d="M4163,574.72a52,52,0,0,0,51.91-46.83l.55-5.35-.55-5.36a52.3,52.3,0,0,0-21-36.69l-4.61-3.4-5.22-2.31a52.19,52.19,0,1,0-21,99.94Zm0-100.52a48.34,48.34,0,1,1-48.34,48.34A48.39,48.39,0,0,1,4163,474.2Z" transform="translate(-59.02 -316.77)"/><path class="cls-29" d="M4215.61,379.38a52.16,52.16,0,0,0-30.87,94.23l4.61,3.4,5.22,2.31a52.18,52.18,0,0,0,42.08,0l5.22-2.31,4.62-3.4a52.17,52.17,0,0,0-30.88-94.23Zm0,100.52A48.34,48.34,0,1,1,4264,431.57,48.38,48.38,0,0,1,4215.61,479.9Z" transform="translate(-59.02 -316.77)"/><path class="cls-29" d="M4268.2,574.72a52.19,52.19,0,1,0,0-104.37,51.67,51.67,0,0,0-21,4.43l-5.23,2.31-4.61,3.4a52.3,52.3,0,0,0-21,36.69l-.55,5.36.55,5.35A52,52,0,0,0,4268.2,574.72Zm0-100.52a48.34,48.34,0,1,1-48.33,48.34A48.4,48.4,0,0,1,4268.2,474.2Z" transform="translate(-59.02 -316.77)"/><path class="cls-29" d="M4268.2,480.63a41.91,41.91,0,1,0,41.91,41.91A42,42,0,0,0,4268.2,480.63Zm-30,65.36-1.24-1.78a37.93,37.93,0,0,1,0-43.34l1.24-1.79Zm21.86,13.72-.84-.21a38.14,38.14,0,0,1-17.42-9.59l-1.21-1.18H4242V494.94l.22-.2a38.17,38.17,0,0,1,16.95-9.17l.84-.2Zm23.48-2.35-.41.18a37.78,37.78,0,0,1-14.92,3.05c-1.21,0-2.45-.06-3.68-.18l-.61-.06v-7.94l.93.37a7.52,7.52,0,0,0,2.81.55,7.6,7.6,0,1,0-2.81-14.64l-.93.37V484.72l.61-.06a38,38,0,0,1,18.6,2.88l.41.18Zm-19.62-11.63a3.74,3.74,0,1,1,3.74,3.74A3.74,3.74,0,0,1,4263.91,545.73Zm24.52,9-1,.66V489.67l1,.65a38,38,0,0,1,0,64.43Z" transform="translate(-59.02 -316.77)"/><path class="cls-29" d="M4163,480.63a41.91,41.91,0,1,0,41.9,41.91A42,42,0,0,0,4163,480.63ZM4133,546l-1.24-1.78a37.93,37.93,0,0,1,0-43.34l1.24-1.79Zm21.86,13.72-.84-.21a38.14,38.14,0,0,1-17.42-9.59l-1.21-1.18h1.46V494.94l.22-.2a38.07,38.07,0,0,1,16.95-9.17l.84-.2Zm23.48-2.35-.41.18a37.85,37.85,0,0,1-14.92,3.05c-1.22,0-2.46-.06-3.68-.18l-.62-.06v-7.94l.94.37a7.51,7.51,0,0,0,2.8.55,7.6,7.6,0,0,0,0-15.19,7.32,7.32,0,0,0-2.8.55l-.94.37V484.72l.62-.06a38,38,0,0,1,18.6,2.88l.41.18Zm-19.63-11.63a3.74,3.74,0,1,1,3.74,3.74A3.75,3.75,0,0,1,4158.72,545.73Zm24.53,9-1.05.66V489.67l1.05.65a38,38,0,0,1,0,64.43Z" transform="translate(-59.02 -316.77)"/><path class="cls-29" d="M4215.61,389.66a41.91,41.91,0,1,0,41.9,41.91A41.95,41.95,0,0,0,4215.61,389.66Zm-30,65.36-1.24-1.78a37.94,37.94,0,0,1,0-43.35l1.24-1.78Zm21.86,13.72-.84-.21a38.14,38.14,0,0,1-17.42-9.59l-1.21-1.18h1.46V404l.22-.2a38.12,38.12,0,0,1,16.95-9.17l.84-.21Zm23.48-2.35-.41.17a37.69,37.69,0,0,1-14.92,3.06c-1.22,0-2.46-.06-3.68-.18l-.62-.06v-7.95l.94.38a7.51,7.51,0,0,0,2.8.55,7.6,7.6,0,1,0,0-15.19,7.32,7.32,0,0,0-2.8.55l-.94.37V393.75l.62-.06a37.82,37.82,0,0,1,18.6,2.88l.41.18Zm-19.63-11.63a3.74,3.74,0,1,1,3.74,3.74A3.75,3.75,0,0,1,4211.31,454.76Zm24.53,9-1.05.66V398.69l1.05.66a38,38,0,0,1,0,64.43Z" transform="translate(-59.02 -316.77)"/></g><g class="cls-32"><ellipse class="cls-12" cx="2691.56" cy="1599.83" rx="155.68" ry="159.37"/><path class="cls-29" d="M2822.7,1822.33H2678.46a22.18,22.18,0,0,0-22.15,22.15v144.24a22.17,22.17,0,0,0,22.15,22.14H2822.7a22.16,22.16,0,0,0,22.14-22.14V1844.48A22.17,22.17,0,0,0,2822.7,1822.33Zm-142,183.46h-2.2a17.09,17.09,0,0,1-17.07-17.07v-.82h19.27Zm0-23h-19.27v-22h19.27Zm0-27.12h-19.27v-21.51h19.27Zm0-26.58h-19.27v-22h19.27Zm0-27.12h-19.27v-21.74h19.27Zm0-26.82h-19.27v-22h19.27Zm0-27.12h-19.27v-3.58a17.09,17.09,0,0,1,17.07-17.07h2.2Zm27.12,157.73h-22.05V1987.9h22.05Zm0-23h-22.05v-22h22.05Zm0-27.12h-22.05v-21.51h22.05Zm0-26.58h-22.05v-22h22.05Zm0-27.12h-22.05v-21.74h22.05Zm0-26.82h-22.05v-22h22.05Zm0-27.12h-22.05v-20.65h22.05Zm26.58,157.73h-21.5V1987.9h21.5Zm0-23h-21.5v-22h21.5Zm0-27.12h-21.5v-21.51h21.5Zm0-26.58h-21.5v-22h21.5Zm0-27.12h-21.5v-21.74h21.5Zm0-26.82h-21.5v-22h21.5Zm0-27.12h-21.5v-20.65h21.5Zm27.13,157.73h-22V1987.9h22Zm0-23h-22v-22h22Zm0-27.12h-22v-21.51h22Zm0-26.58h-22v-22h22Zm0-27.12h-22v-21.74h22Zm0-26.82h-22v-22h22Zm0-27.12h-22v-20.65h22Zm26.81,157.73h-21.74V1987.9h21.74Zm0-23h-21.74v-22h21.74Zm0-27.12h-21.74v-21.51h21.74Zm0-26.58h-21.74v-22h21.74Zm0-27.12h-21.74v-21.74h21.74Zm0-26.82h-21.74v-22h21.74Zm0-27.12h-21.74v-20.65h21.74Zm27.12,157.73h-22.05V1987.9h22.05Zm0-23h-22.05v-22h22.05Zm0-27.12h-22.05v-21.51h22.05Zm0-26.58h-22.05v-22h22.05Zm0-27.12h-22.05v-21.74h22.05Zm0-26.82h-22.05v-22h22.05Zm0-27.12h-22.05v-20.65h22.05Zm24.35,140.66a17.09,17.09,0,0,1-17.07,17.07h-2.2V1987.9h19.27Zm0-5.9H2820.5v-22h19.27Zm0-27.12H2820.5v-21.51h19.27Zm0-26.58H2820.5v-22h19.27Zm0-27.12H2820.5v-21.74h19.27Zm0-26.82H2820.5v-22h19.27Zm0-27.12H2820.5v-20.65h2.2a17.09,17.09,0,0,1,17.07,17.07Z" transform="translate(-59.02 -316.77)"/></g><g class="cls-32"><ellipse class="cls-12" cx="1454.53" cy="1598.65" rx="155.68" ry="159.37"/><polygon class="cls-29" points="1455.34 1538.02 1455.34 1538.02 1455.34 1538.02 1455.34 1538.02"/><polygon class="cls-29" points="1476.71 1554.92 1476.71 1554.91 1476.71 1554.91 1476.71 1554.92"/><path class="cls-29" d="M1608.4,1917.28c.1-15.91.1-32.07,0-48-.05-6.53-4.17-10.13-11.62-10.13h-.1c-7.16,0-11.22,3.62-11.43,10.1,0,1.52,0,3,0,4.64l0,2.36H1543l-.2-1.21c-.19-1.2-.38-2.4-.56-3.6v-.08c-.56-3.64-1.13-7.39-2-11-1.59-6.52-3.08-7.18-9.31-7.36-.94,0-1.87,0-2.78,0h-1.21l-.3-1c-1-3.53.6-6,2.85-8.83l.64-.82,4,1.48c3.47,1.29,7,2.6,10.49,3.82a23.83,23.83,0,0,0,4.83,1.11c5.08.68,9.61-.88,12.44-4.26s3.56-8.2,2-13.14c-2-6.26-7.62-9.38-14.3-8a105.31,105.31,0,0,0-16,5.25l-.59.23c-2.31.9-3.5,1.07-5.26-1.1a13.86,13.86,0,0,0-10.75-5.29h-.16a13.71,13.71,0,0,0-10.65,5.46c-1.67,2.14-2.77,1.85-4.92,1l-2.85-1.11-.09,0a78.37,78.37,0,0,0-13.23-4.32c-5-1-9.59.23-12.51,3.36s-3.93,8.07-2.51,13.26c1.56,5.73,5.84,9,11.19,8.62a66,66,0,0,0,12.89-2.78l1.5-.43a37.77,37.77,0,0,0,5.57-2.26l1.42-.67,1-.46.81,1c2.09,2.56,4,5,3.11,8.67l-.26,1-1.74.15a27.37,27.37,0,0,1-4.06.14l-.73,0c-3.29,0-5.39,1.78-6.24,5.3-1,4.12-1.78,8.18-2.63,12.48l0,.19c-.27,1.37-.54,2.75-.82,4.14l-.21,1.06-1.08.09c-1.24.11-2.51.2-3.85.29a122.65,122.65,0,0,0-12.33,1.31c-15.86,2.74-29.51,10.21-39.49,21.59a63,63,0,0,0-15.48,40.36c0,1.28.07,2.69.9,3.46a4.13,4.13,0,0,0,2.93.78c.55,0,1.19,0,2-.12a141.07,141.07,0,0,1,27.57,0c3.86.38,4.63-.35,5.46-3.26l.25-.87c1.6-5.64,3.25-11.45,6.17-16.43,6-10.19,15.82-14.81,28.52-13.36l1.28.14v1.29c0,.37,0,.75,0,1.12.16,4.73,2.87,7.47,7.45,7.53,11.49.16,21.71.17,31.22,0,5.47-.08,7.45-2.22,8.14-8.82l.13-1.29h44.6l0,2.35c0,1.71,0,3.32,0,4.93.27,6.38,4.38,9.89,11.59,9.89C1604.27,1927.17,1608.36,1923.65,1608.4,1917.28ZM1534,1834.05l1.26-.47c5.29-2,10.77-4.07,16.34-5.11a6.27,6.27,0,0,1,5.39,1.11c1.57,1.32,2.42,3.64,2.39,6.54-.06,4.82-2.44,7.38-7.73,8.28l-.39.07-.36-.14-4.52-1.68-.08,0c-4-1.5-8.23-3-12.27-4.74a2.26,2.26,0,0,1-1.59-2A2.13,2.13,0,0,1,1534,1834.05Zm-34,3.86c-4.13,1.74-8.28,3.27-11.61,4.49l-2.76,1-.24.09h-.8c-4,0-6.59-.72-8.14-2.25-1.25-1.25-1.82-3-1.77-5.57,0-2.71.91-4.9,2.46-6.15h0a6.69,6.69,0,0,1,5.73-1.08c5.52,1.07,10.92,3.17,16.15,5.2l1.06.4a2.13,2.13,0,0,1,1.54,1.85A2.27,2.27,0,0,1,1500,1837.91Zm-3.2,34.12c.39-2.42.92-4.86,1.43-7.22l0-.17c.27-1.26.55-2.51.8-3.77a3,3,0,0,1,3.38-2.74h.33c2.19.09,4.39.07,6.73,0h.34l3,0h.08v-.08c0-1.16,0-2.26,0-3.32v-.08a68.7,68.7,0,0,0-.12-7.08,8.56,8.56,0,0,0-1.89-4.6c-3.56-4-3.62-9.14-.13-12.67a8.8,8.8,0,0,1,15,5.83,9.57,9.57,0,0,1-2.79,6.9c-.13.14-.27.27-.41.41l-.06.06c-.6.57-1.27,1.22-1.3,1.87-.13,3.08-.11,6.19-.1,9.2,0,1.06,0,2.13,0,3.19v.08h.07l1.12.07a6.12,6.12,0,0,1,1.34.14,11.62,11.62,0,0,0,4.19-.06c2.62-.35,5.08-.67,6.55,2,1.26,2.26,1.66,4.93,2.08,7.75.17,1.19.35,2.42.6,3.58l0,.16a2.17,2.17,0,0,1,0,.26c0,.14,0,.25,0,.35a3.63,3.63,0,0,1-.65,2.91,3.91,3.91,0,0,1-3,1c-7.45,0-15,0-22.68,0H1500.4a3.77,3.77,0,0,1-3-1.1A3.55,3.55,0,0,1,1496.81,1872Zm37,41.87a3.75,3.75,0,0,1-2.12,1.08c-5.17.11-10.35.16-15.51.16q-6.92,0-13.73-.13h-.14a3.77,3.77,0,0,1-1.93-1.15l-1.32-1.15,1.4-1.07a3.93,3.93,0,0,1,2.09-1c3.54-.19,7.22-.16,10.46-.13h.23q3.88,0,7.75,0c3.56,0,7.22-.06,10.8.13a3.77,3.77,0,0,1,2,1.06l1.39,1.13Zm51.13-9.4h-93.4c-18.51,0-30.13,8.08-36.59,25.41a27.72,27.72,0,0,0-.85,3c-.59,2.35-1.13,4.55-2.54,5.43a6.85,6.85,0,0,1-3.65.8c-1,0-2-.09-3-.17s-2-.17-3-.17h-18.07l.09-1.53a51.49,51.49,0,0,1,4.69-19.47c11-23.27,30.37-35.35,57.61-35.9,22.29-.46,44.91-.35,66.79-.24h.41c9.08,0,18.48.09,27.72.09.75,0,1.5,0,2.39.13l1.33.1Zm18.54,11.61c0,2.13-.44,3.54-1.35,4.45s-2.63,1.44-5.4,1.44c-4.7,0-6.14-1.42-6.17-6,0-5.39,0-10.83,0-16.08l0-6.78c0-2,0-3.93,0-5.92v-.91c0-5.36,0-10.9,0-16.34,0-4.32,1.64-5.78,6.36-5.78s6.48,1.7,6.5,5.84C1603.47,1885.18,1603.47,1900.67,1603.43,1916.11Z" transform="translate(-59.02 -316.77)"/><path class="cls-29" d="M1418.71,1993a12.74,12.74,0,0,0,7,12.88,24.44,24.44,0,0,0,19,1.22c7.85-2.58,11.33-8.55,9.81-16.79a77.55,77.55,0,0,0-13.7-31.23l0,0-1.49-1.95a4,4,0,0,0-2.37-.91h-.19a3.93,3.93,0,0,0-2.94,1.32c-5.83,6.57-8.91,14-11.35,20.37A63.77,63.77,0,0,0,1418.71,1993Zm4.87-.74c1.56-9.09,5.17-17.94,11.37-27.84a2,2,0,0,1,3.32,0c6.34,10.16,10,19.08,11.35,28.08.65,4.17-1.38,7.56-5.57,9.29a19.35,19.35,0,0,1-7.42,1.52,20,20,0,0,1-7.72-1.61A8.46,8.46,0,0,1,1423.58,1992.23Z" transform="translate(-59.02 -316.77)"/></g><ellipse class="cls-30" cx="776.61" cy="1599.94" rx="155.68" ry="159.37"/><rect class="cls-34" x="683.65" y="1576.61" width="185.92" height="18.83"/><rect class="cls-34" x="683.65" y="1674.66" width="185.92" height="18.83"/><line class="cls-35" x1="687.57" y1="1596.87" x2="687.57" y2="1672.5"/><line class="cls-35" x1="864.86" y1="1596.87" x2="864.86" y2="1674.66"/><rect class="cls-34" x="736.6" y="1611.91" width="77.66" height="41.18"/><line class="cls-34" x1="757.39" y1="1627.6" x2="795.43" y2="1627.6"/><line class="cls-34" x1="757.19" y1="1640.54" x2="795.24" y2="1640.54"/><rect class="cls-34" x="710.45" y="1506.4" width="24.32" height="15.17" rx="3.96"/><path class="cls-34" d="M757.18,1893.38a35,35,0,0,1,9.94-17.13c8.1-7.58,6.66-37.91,6.66-37.91" transform="translate(-59.02 -316.77)"/><path class="cls-34" d="M806.68,1893.38a35,35,0,0,0-9.93-17.13c-8.11-7.58-6.67-37.91-6.67-37.91" transform="translate(-59.02 -316.77)"/><line class="cls-34" x1="714.04" y1="1542.11" x2="731.79" y2="1542.11"/><rect class="cls-34" x="762.97" y="1506.4" width="24.32" height="15.17" rx="3.96"/><path class="cls-34" d="M809.7,1893.38a35,35,0,0,1,9.93-17.13c8.11-7.58,6.67-37.91,6.67-37.91" transform="translate(-59.02 -316.77)"/><path class="cls-34" d="M859.2,1893.38a35,35,0,0,0-9.93-17.13c-8.11-7.58-6.67-37.91-6.67-37.91" transform="translate(-59.02 -316.77)"/><line class="cls-34" x1="766.55" y1="1542.11" x2="784.31" y2="1542.11"/><rect class="cls-34" x="815" y="1506.4" width="24.32" height="15.17" rx="3.96"/><path class="cls-34" d="M861.73,1893.38a35,35,0,0,1,9.94-17.13c8.11-7.58,6.67-37.91,6.67-37.91" transform="translate(-59.02 -316.77)"/><path class="cls-34" d="M911.24,1893.38a35,35,0,0,0-9.94-17.13c-8.1-7.58-6.67-37.91-6.67-37.91" transform="translate(-59.02 -316.77)"/><line class="cls-34" x1="818.59" y1="1542.11" x2="836.34" y2="1542.11"/><path class="cls-2" d="M2120,483.45c69.75.41,139.28.41,209.05.61" transform="translate(-59.02 -316.77)"/><path class="cls-9" d="M3635.39,347.68a6,6,0,0,1,6,6m-6-14.52h-62A14.54,14.54,0,0,0,3559,351.42h-28.64a20.47,20.47,0,0,0-20.45,20.44v218.3a20.47,20.47,0,0,0,20.45,20.44h148a20.46,20.46,0,0,0,20.44-20.44V371.86a20.46,20.46,0,0,0-20.44-20.44h-28.64a14.55,14.55,0,0,0-14.34-12.23Z" transform="translate(-59.02 -316.77)"/><path class="cls-10" d="M3678.37,359.91h-36.95v-6.2a6,6,0,0,0-6-6h-62a6,6,0,0,0-6,6v6.2h-36.95a12,12,0,0,0-12,11.95v218.3a12,12,0,0,0,12,12h148a12,12,0,0,0,12-12V371.86A12,12,0,0,0,3678.37,359.91Zm-105.73-6.2a.72.72,0,0,1,.72-.72h62a.72.72,0,0,1,.72.72v21.91a.72.72,0,0,1-.72.72h-62a.72.72,0,0,1-.72-.72ZM3685,590.16a6.65,6.65,0,0,1-6.65,6.64h-148a6.65,6.65,0,0,1-6.65-6.64V371.86a6.65,6.65,0,0,1,6.65-6.65h36.95v10.41a6,6,0,0,0,6,6h62a6,6,0,0,0,6-6V365.21h36.95a6.65,6.65,0,0,1,6.65,6.65Z" transform="translate(-59.02 -316.77)"/><polyline class="cls-11" points="3499.85 143.67 3538.14 198.39 3590.86 117.85"/><path class="cls-9" d="M4197.34,1777.07a6,6,0,0,1,6,6m-6-14.52h-62A14.54,14.54,0,0,0,4121,1780.8h-28.65a20.46,20.46,0,0,0-20.44,20.44v218.3a20.46,20.46,0,0,0,20.44,20.44h148a20.46,20.46,0,0,0,20.44-20.44v-218.3a20.46,20.46,0,0,0-20.44-20.44h-28.65a14.54,14.54,0,0,0-14.34-12.23Z" transform="translate(-59.02 -316.77)"/><path class="cls-10" d="M4240.33,1789.29h-37v-6.2a6,6,0,0,0-6-6h-62a6,6,0,0,0-6,6v6.2h-37a12,12,0,0,0-11.95,12v218.3a12,12,0,0,0,11.95,12h148a12,12,0,0,0,11.95-12v-218.3A12,12,0,0,0,4240.33,1789.29Zm-105.74-6.2a.73.73,0,0,1,.73-.72h62a.72.72,0,0,1,.72.72V1805a.72.72,0,0,1-.72.72h-62a.73.73,0,0,1-.73-.72ZM4247,2019.54a6.65,6.65,0,0,1-6.64,6.65h-148a6.65,6.65,0,0,1-6.64-6.65v-218.3a6.65,6.65,0,0,1,6.64-6.64h37V1805a6,6,0,0,0,6,6h62a6,6,0,0,0,6-6v-10.4h37a6.65,6.65,0,0,1,6.64,6.64Z" transform="translate(-59.02 -316.77)"/><polyline class="cls-11" points="4061.81 1573.05 4100.1 1627.78 4152.81 1547.24"/><path class="cls-1" d="M3900.85,1302.16c16.87.19,33.05-.87,49.79,1.26,18.49,3.2,33.5,32,35.81,65.1,2.89,180.37,0,359.66,1,539.9" transform="translate(-59.02 -316.77)"/><path class="cls-1" d="M3394.67,1302.34c55.72,0,110.39,0,165.77-.15" transform="translate(-59.02 -316.77)"/><path class="cls-1" d="M2989.12,1893.12c1.1-177.9-2-355,1.88-533.14,3.14-6.18,3.14-12.36,5.5-18.54,1.57-2.06,2.35-4.12,3.93-7.2a100.61,100.61,0,0,1,11.77-15.45,25.19,25.19,0,0,0,5.5-5.15c7.07-6.18,14.92-9.27,22.77-9.27,26.7-2,53.39-1,80.28-1" transform="translate(-59.02 -316.77)"/><path class="cls-2" d="M3987.21,1913.68q-498.33,2-997,2" transform="translate(-59.02 -316.77)"/><text class="cls-5" transform="translate(3302.63 1294.24) rotate(0.41)"><tspan class="cls-26">F</tspan><tspan x="50.71" y="0">ining</tspan></text><g class="cls-32"><ellipse class="cls-12" cx="3656.26" cy="971.6" rx="155.68" ry="159.37"/><path class="cls-29" d="M3715.28,1270.79a49.12,49.12,0,1,0,49.12,49.12A49.18,49.18,0,0,0,3715.28,1270.79Zm-35.13,77.27-1.78-2.55a44.81,44.81,0,0,1,0-51.19l1.78-2.56Zm25.72,15.8-1.21-.29a45,45,0,0,1-20.57-11.33l-1.75-1.69,2,4.34v-67.52l.31-.29a45,45,0,0,1,20-10.83l1.21-.29Zm27.62-2.87-.6.25a44.36,44.36,0,0,1-17.61,3.61c-1.44,0-2.9-.07-4.35-.21l-.88-.08v-9.77l1.34.54a8.76,8.76,0,1,0,0-16.26l-1.34.54v-64.34l.88-.09c1.44-.14,2.91-.21,4.35-.21a44.54,44.54,0,0,1,17.61,3.61l.6.25Zm-23.44-13.79a4.58,4.58,0,1,1,4.57,4.58A4.58,4.58,0,0,1,3710.05,1347.2Zm29.12,10.76-1.5.94v-78l1.5.95a44.91,44.91,0,0,1,0,76.09Z" transform="translate(-59.02 -316.77)"/><path class="cls-29" d="M3715.28,1256.38a63.53,63.53,0,1,0,63.52,63.53A63.6,63.6,0,0,0,3715.28,1256.38Zm0,123.59a60.06,60.06,0,1,1,60.06-60.06A60.13,60.13,0,0,1,3715.28,1380Z" transform="translate(-59.02 -316.77)"/><path class="cls-36" d="M3753.87,1188.9h-77.18a3.14,3.14,0,0,0-2.22,5.36l29.77,29.77a8.22,8.22,0,0,1,2.41,5.81v14.93a5.2,5.2,0,0,0,5.2,5.2h6.85a5.2,5.2,0,0,0,5.2-5.2v-14.93a8.22,8.22,0,0,1,2.41-5.81l29.77-29.77A3.14,3.14,0,0,0,3753.87,1188.9Z" transform="translate(-59.02 -316.77)"/></g><path class="cls-9" d="M3277.33,1161.16a6,6,0,0,1,6,6m-6-14.51h-62a14.53,14.53,0,0,0-14.34,12.22h-28.65a20.46,20.46,0,0,0-20.44,20.44v218.31a20.46,20.46,0,0,0,20.44,20.44h148a20.46,20.46,0,0,0,20.44-20.44V1185.33a20.46,20.46,0,0,0-20.44-20.44h-28.64a14.55,14.55,0,0,0-14.34-12.22Z" transform="translate(-59.02 -316.77)"/><path class="cls-10" d="M3320.31,1173.38h-36.95v-6.2a6,6,0,0,0-6-6h-62a6,6,0,0,0-6,6v6.2h-37a12,12,0,0,0-11.94,11.95v218.31a12,12,0,0,0,11.94,11.95h148a12,12,0,0,0,12-11.95V1185.33A12,12,0,0,0,3320.31,1173.38Zm-105.73-6.2a.72.72,0,0,1,.72-.72h62a.72.72,0,0,1,.72.72v21.91a.72.72,0,0,1-.72.72h-62a.72.72,0,0,1-.72-.72ZM3327,1403.64a6.65,6.65,0,0,1-6.65,6.64h-148a6.65,6.65,0,0,1-6.64-6.64V1185.33a6.65,6.65,0,0,1,6.64-6.64h37v10.4a6,6,0,0,0,6,6h62a6,6,0,0,0,6-6v-10.4h36.95a6.65,6.65,0,0,1,6.65,6.64Z" transform="translate(-59.02 -316.77)"/><polyline class="cls-11" points="3141.79 957.14 3180.08 1011.87 3232.8 931.33"/><path class="cls-9" d="M2164.41,1777.6a6,6,0,0,1,6,6m-6-14.52h-62a14.53,14.53,0,0,0-14.34,12.23h-28.65a20.46,20.46,0,0,0-20.44,20.44v218.3a20.46,20.46,0,0,0,20.44,20.44h148a20.46,20.46,0,0,0,20.44-20.44v-218.3a20.46,20.46,0,0,0-20.44-20.44h-28.65a14.53,14.53,0,0,0-14.33-12.23Z" transform="translate(-59.02 -316.77)"/><path class="cls-10" d="M2207.39,1789.83h-37v-6.2a6,6,0,0,0-6-6h-62a6,6,0,0,0-6,6v6.2h-37a12,12,0,0,0-11.95,12v218.3a12,12,0,0,0,11.95,12h148a12,12,0,0,0,12-12v-218.3A12,12,0,0,0,2207.39,1789.83Zm-105.73-6.2a.72.72,0,0,1,.72-.72h62a.72.72,0,0,1,.72.72v21.91a.73.73,0,0,1-.72.72h-62a.72.72,0,0,1-.72-.72ZM2214,2020.08a6.65,6.65,0,0,1-6.64,6.64h-148a6.65,6.65,0,0,1-6.64-6.64v-218.3a6.65,6.65,0,0,1,6.64-6.65h37v10.41a6,6,0,0,0,6,6h62a6,6,0,0,0,6-6v-10.41h37a6.65,6.65,0,0,1,6.64,6.65Z" transform="translate(-59.02 -316.77)"/><polyline class="cls-11" points="2028.87 1573.59 2067.16 1628.31 2119.88 1547.77"/><path class="cls-9" d="M1540.65,1165.05a6,6,0,0,1,6,6m-6-14.52h-62a14.54,14.54,0,0,0-14.34,12.23h-28.65a20.46,20.46,0,0,0-20.44,20.44v218.3a20.46,20.46,0,0,0,20.44,20.44h148a20.46,20.46,0,0,0,20.44-20.44v-218.3a20.46,20.46,0,0,0-20.44-20.44H1555a14.54,14.54,0,0,0-14.34-12.23Z" transform="translate(-59.02 -316.77)"/><path class="cls-10" d="M1583.64,1177.28h-37v-6.2a6,6,0,0,0-6-6h-62a6,6,0,0,0-6,6v6.2h-37a12,12,0,0,0-12,12v218.3a12,12,0,0,0,12,12h148a12,12,0,0,0,11.95-12v-218.3A12,12,0,0,0,1583.64,1177.28Zm-105.73-6.2a.72.72,0,0,1,.72-.72h62a.72.72,0,0,1,.72.72V1193a.72.72,0,0,1-.72.72h-62a.72.72,0,0,1-.72-.72Zm112.37,236.45a6.65,6.65,0,0,1-6.64,6.64h-148a6.65,6.65,0,0,1-6.64-6.64v-218.3a6.65,6.65,0,0,1,6.64-6.64h37V1193a6,6,0,0,0,6,6h62a6,6,0,0,0,6-6v-10.4h37a6.65,6.65,0,0,1,6.64,6.64Z" transform="translate(-59.02 -316.77)"/><polyline class="cls-11" points="1405.12 961.04 1443.41 1015.76 1496.12 935.23"/><path class="cls-9" d="M245.72,1777.6a6,6,0,0,1,6,6m-6-14.52h-62a14.53,14.53,0,0,0-14.34,12.23H140.7a20.46,20.46,0,0,0-20.44,20.44v218.3a20.46,20.46,0,0,0,20.44,20.44h148a20.46,20.46,0,0,0,20.44-20.44v-218.3a20.46,20.46,0,0,0-20.44-20.44H260.06a14.55,14.55,0,0,0-14.34-12.23Z" transform="translate(-59.02 -316.77)"/><path class="cls-10" d="M288.7,1789.83h-37v-6.2a6,6,0,0,0-6-6h-62a6,6,0,0,0-6,6v6.2h-37a12,12,0,0,0-11.95,12v218.3a12,12,0,0,0,11.95,12h148a12,12,0,0,0,11.95-12v-218.3A12,12,0,0,0,288.7,1789.83ZM183,1783.63a.72.72,0,0,1,.72-.72h62a.72.72,0,0,1,.72.72v21.91a.72.72,0,0,1-.72.72h-62a.72.72,0,0,1-.72-.72Zm112.38,236.45a6.65,6.65,0,0,1-6.65,6.64h-148a6.65,6.65,0,0,1-6.64-6.64v-218.3a6.65,6.65,0,0,1,6.64-6.65h37v10.41a6,6,0,0,0,6,6h62a6,6,0,0,0,6-6v-10.41h37a6.65,6.65,0,0,1,6.65,6.65Z" transform="translate(-59.02 -316.77)"/><polyline class="cls-11" points="110.18 1573.59 148.47 1628.31 201.19 1547.77"/><path class="cls-2" d="M3727.11,483c101.87.41,203.42.41,305.32.6" transform="translate(-59.02 -316.77)"/><path class="cls-2" d="M2591.64,482.12c87.69.41,175.11.41,262.82.61" transform="translate(-59.02 -316.77)"/><path class="cls-2" d="M1523.5,482.9c71.47.41,142.73.41,214.22.61" transform="translate(-59.02 -316.77)"/></svg>